<?xml version="1.0" encoding="utf-8"?>
<!-- Generator: Adobe Illustrator 23.0.2, SVG Export Plug-In . SVG Version: 6.00 Build 0)  -->
<svg version="1.1" id="Layer_1" xmlns="http://www.w3.org/2000/svg" xmlns:xlink="http://www.w3.org/1999/xlink" x="0px" y="0px"
	 viewBox="0 0 617.7 293.7" style="enable-background:new 0 0 617.7 293.7;" xml:space="preserve">
<style type="text/css">
	.st0{fill:#2080E1;}
	.st1{fill:#0072CE;}
</style>
<g>
	<path class="st0" d="M298.4,161.5c0-13.3,0-26.7,0-40h0c0-1.9,0-3.8,0-5.7c0-0.4,0-0.8,0-1.1c0-1.9,0-3.8,0-5.7v-5.4
		c0-0.7,0-1.3,0-2v-1.1c0-6.4,0-12.9,0-19.3c-0.1-10.5-8.5-19.5-18.8-20.3c-11.1-0.9-20.8,6.4-22.4,17.1c-0.5,3.3-0.4,6.7-0.4,10
		c0,6.5,0,12.9,0,19.3c0,2.4,0,4.9,0,7.4v1.1c0,0.1,0,0.3,0,0.4c0,0.3,0,0.6,0,0.9v6.3c0,0.4,0,0.8,0,1.1c0,0.7,0,1.3,0,2
		c0,0.4,0,0.8,0,1.1c0,0.3,0,0.5,0,0.8v9.5c0,7.9,0,15.9,0,23.8c0,13.2,12.6,22.9,25.4,20C291.8,179.6,298.4,171.5,298.4,161.5z
		 M261.6,81.8c0.1-6.4,2.9-11.3,8.5-14.3c5.3-2.9,10.8-2.7,15.9,0.5c4.5,2.8,7.4,6.9,7.5,12.2c0.1,7.1,0.2,14.2,0.2,21.3
		c0,0.4,0,0.8,0,1.1c0,0.1,0,0.2,0,0.3c0,0.4,0,0.8,0,1.1l0.3,0.1c-0.1,0-0.2,0.1-0.3,0.2c0,0.4,0,0.8,0,1.1c0,0.2,0,0.5,0,0.7
		c0,0.4,0,0.8,0,1.1c0,1.4,0,2.8-0.1,4.3c0,0.4,0,0.8,0,1.2c0,1.5-0.1,3-0.1,4.6c0,1.1-0.2,2.1-0.5,3.1c-0.2,0.6-0.4,1.2-0.6,1.7
		c-1.9,4.5-6,7.9-10.9,9.1c-0.7,0.2-1.5,0.3-2.3,0.4c-0.5,0-1,0.1-1.5,0.1c-4.6,0-8.9-2-11.8-5.2c-0.3-0.3-0.6-0.6-0.8-1
		c-0.4-0.5-0.7-0.9-1-1.4c-0.2-0.3-0.4-0.7-0.6-1c-0.9-1.8-1.5-3.8-1.7-5.9c0-0.4,0-0.8-0.1-1.1c0-0.4,0-0.8,0-1.1
		c-0.1-2.4,0-4.8,0-7.2c0-3.1,0-6.2,0-9.3h0C261.6,93,261.5,87.4,261.6,81.8z M275.2,161.7c0.2,1.4,1,2.1,2.4,2.1
		c1.3,0,2.3-0.8,2.3-2.2c0.1-2,0.1-3.9,0.1-5.9c0-5.5,0.1-11-0.1-16.5c-0.1-2.2,0.5-3.3,2.7-3.4c0.5,0,1-0.2,1.7-0.3v2.1
		c0,7.7,0,15.5,0,23.2c0,4.3-2.8,7.3-6.8,7.3c-3.9,0-6.8-3.1-6.8-7.4c0-7.7,0-15.5,0-23.2v-2.1c0.5,0.1,0.9,0.2,1.3,0.2
		c0.5,0.1,1.1,0.2,1.5,0.3c0.3,0.1,0.5,0.2,0.7,0.3c0.5,0.2,0.7,1.2,0.7,1.9c0,7.2,0,14.4,0,21.6
		C275.2,160.6,275.2,161.1,275.2,161.7z M278.2,177.5c-8.5,0.3-16.1-6.2-16.4-14.7c-0.3-7.7-0.2-15.4-0.2-23.1c0-0.4,0-0.8,0-1.1
		c0-2.7,0-5.3,0-8c0-0.1,0-0.2,0.1-0.4c0-0.1,0.1-0.3,0.2-0.5c0.4,0.3,0.7,0.6,1.1,0.9c0.9,0.7,1.7,1.3,2.4,2.1
		c0.4,0.5,0.6,1.4,0.6,2.1c0,1.2,0,2.4,0,3.6c0,0.4,0,0.8,0,1.1c0,7.3,0,14.7,0,22c0,5,3.1,9.2,7.6,10.9c4.4,1.7,9.3,0.5,12.6-3.1
		c2.1-2.3,3.1-5,3.1-8.1c0-8.5,0.1-17.1,0-25.6c0-1.9,0.2-3.3,2-4.3c0.7-0.4,1.3-1.1,2.2-2c0.1,0.9,0.2,1.5,0.2,2.1
		c0,9.9,0.1,19.8,0,29.7C293.5,170.2,286.9,177.2,278.2,177.5z"/>
	<path class="st0" d="M277.6,46.6c11.3,0,20.8-9.3,20.8-20.6c0-11.7-9.1-21-20.7-21c-11.5,0-20.8,9.2-20.9,20.7
		C256.7,37.2,266,46.5,277.6,46.6z M277.5,9.7c8.9,0,16.2,7.2,16.2,16.1c0,8.8-7.2,16-16.1,16c-8.9,0-16.1-7.1-16.1-15.9
		C261.6,17,268.8,9.7,277.5,9.7z"/>
	<path class="st0" d="M266,115.6c0.2,6.7,5.3,11.8,11.8,11.8c6.4-0.1,11.5-5.2,11.5-11.8c0.1-11.2,0-22.4,0-33.6
		c0-3.6-1.2-6.7-4-9.1c-3.7-3.1-7.9-3.8-12.3-1.9c-4.7,2-6.9,5.9-7,10.9c-0.1,5.6,0,11.2,0,16.7h0c0,2.8,0,5.6,0,8.5
		C265.9,109.9,265.9,112.8,266,115.6z M270.8,81.4c0-3.7,3-6.6,6.6-6.7c3.6-0.1,6.8,2.8,6.9,6.4c0.1,5.8,0,11.7,0,17.5h0
		c0,5.7,0,11.4,0,17.1c0,3-1.9,5.5-4.7,6.4c-2.7,0.9-5.7,0-7.4-2.3c-0.8-1.1-1.4-2.6-1.4-4C270.8,104.4,270.8,92.9,270.8,81.4z"/>
	<path class="st0" d="M277.7,37.3c6.4,0,11.5-5.2,11.6-11.5c0-6.4-5.3-11.7-11.6-11.7c-6.3,0-11.6,5.3-11.7,11.7
		C266,32.2,271.2,37.3,277.7,37.3z M277.7,19c3.8,0,6.8,3.1,6.7,6.9c-0.1,3.7-3.1,6.7-6.8,6.7c-3.8,0-6.8-3.1-6.7-7
		C270.9,21.9,273.9,18.9,277.7,19z"/>
	<path class="st0" d="M277.6,118c1.6,0,2.4-1,2.4-3.1c0-10.9,0-21.7,0-32.6c0-2.1-0.9-3.2-2.4-3.1c-1.5,0-2.3,1.1-2.3,3.2
		c0,5.4,0,10.9,0,16.3h0c0,5.4,0,10.7,0,16.1C275.2,117,276,118,277.6,118z"/>
	<path class="st0" d="M277.7,28.1c1.4-0.1,2.3-0.9,2.2-2.4c-0.1-1.4-0.9-2.2-2.3-2.2c-1.5,0-2.3,0.9-2.4,2.3
		C275.4,27.3,276.3,28.1,277.7,28.1z"/>
	<rect x="7.8" y="208.3" class="st1" width="20.3" height="79.4"/>
	<path class="st1" d="M90,231.2c-3.2-2.8-9.6-5.2-15.2-5.2c-10.6,0-14.4,5.5-16.2,8.4h-0.2v-6.3H41.7v59.6h17.8v-32.4
		c0-3.7,0-12.5,10.2-12.5c9.3,0,9.3,8.2,9.3,12.3v32.5h17.8v-37.3C96.9,238.7,93.3,234,90,231.2z"/>
	<polygon class="st1" points="131.9,265.3 131.7,265.3 120.3,228.1 101.8,228.1 123.2,287.7 140.3,287.7 161.8,228.1 143.3,228.1 	
		"/>
	<path class="st1" d="M196,226.1c-18.1,0-31.2,15.4-31.2,32c0,17.7,14.5,31.6,31.6,31.6c6.1,0,12-1.8,17-5.4
		c5-3.4,9.2-8.6,12.1-15.2h-18.3c-2.5,3.1-5.4,5.6-10.8,5.6c-7,0-12.9-4.2-14-11.3H227c0.2-1.4,0.4-2.4,0.4-4.7
		C227.5,240.5,214.1,226.1,196,226.1z M182.6,251.3c0.8-3.5,4.3-10.2,13.5-10.2s12.8,6.7,13.5,10.2H182.6z"/>
	<path class="st1" d="M261.2,250.8c-4.7-1.4-9.1-3.2-9.1-6.4c0-1.6,1.3-4,5-4c5.3,0,5.5,3.2,5.6,4.5h17.5
		c-1.5-15.7-15-18.8-22.9-18.8c-12.3,0-23.1,7.8-23.1,19.6c0,8.1,6.4,13.1,14.2,15.6c11.4,4.4,15.8,4.9,15.8,9.6
		c0,2.9-3.2,4.6-6.2,4.6c-0.8,0-6,0-6.8-5.5h-17.7c1.6,15.7,15.2,19.8,24.3,19.8c13.2,0,24.3-7.7,24.3-20.3
		C282,256.6,271.3,253.6,261.2,250.8z"/>
	<polygon class="st1" points="313.9,208.3 296.1,208.3 296.1,228.1 287.3,228.1 287.3,241.6 296.1,241.6 296.1,287.7 313.9,287.7 
		313.9,241.6 322.5,241.6 322.5,228.1 313.9,228.1 	"/>
	<polygon class="st1" points="379.4,258 379.2,258.2 348.5,208.3 331,208.3 331,287.7 350.4,287.7 349.9,239.5 350.1,239.4 
		380.3,287.7 398,287.7 398,208.3 378.5,208.3 	"/>
	<path class="st1" d="M456.5,234.4h-0.2c-2.1-3.7-7.6-8.4-17.4-8.4c-15.9,0-30,12.2-30,31.8c0,17.1,11.1,31.9,30,31.9
		c7,0,14.4-2.7,17.4-8.5h0.2v6.4h17.8v-59.6h-17.8V234.4z M441.5,273.1c-10.7,0-14.8-9.4-14.8-15c0-6.8,4.5-15.4,14.7-15.4
		c10.1,0,15,7.9,15,15.1C456.5,263.6,452.7,273.1,441.5,273.1z"/>
	<rect x="487.3" y="208.3" class="st1" width="17.8" height="13.5"/>
	<rect x="487.3" y="228.1" class="st1" width="17.8" height="59.6"/>
	<path class="st1" d="M534.8,234.4h-0.2v-6.3h-16.7v59.6h17.8V255c0-9,5.8-10.7,14.1-11v-17.9C539.5,226.1,536.4,231.5,534.8,234.4z
		"/>
	<path class="st1" d="M616,258.6c0-18.1-13.3-32.5-31.5-32.5s-31.2,15.4-31.2,32c0,17.7,14.5,31.6,31.6,31.6c6.1,0,12-1.8,17-5.4
		c5-3.4,9.2-8.6,12.1-15.2h-18.3c-2.5,3.1-5.4,5.6-10.8,5.6c-7,0-12.9-4.2-14-11.3h44.7C615.8,261.9,616,261,616,258.6z
		 M571.1,251.3c0.8-3.5,4.3-10.2,13.5-10.2s12.8,6.7,13.5,10.2H571.1z"/>
</g>
</svg>
