<?xml version="1.0" encoding="utf-8"?>
<!-- Generator: Adobe Illustrator 23.0.2, SVG Export Plug-In . SVG Version: 6.00 Build 0)  -->
<svg version="1.1" id="Layer_1" xmlns="http://www.w3.org/2000/svg" xmlns:xlink="http://www.w3.org/1999/xlink" x="0px" y="0px"
	 viewBox="0 0 609.9 344.3" style="enable-background:new 0 0 609.9 344.3;" xml:space="preserve">
<style type="text/css">
	.st0{fill:#0561F9;}
	.st1{fill:#FFFFFF;}
	.st2{fill:none;}
</style>
<g>
	<g>
		<path class="st0" d="M304.9,63.3c3.1,0,5.6-2.4,5.7-5.5c0.1-3.2-2.4-5.7-5.6-5.8c-3.1,0-5.6,2.4-5.7,5.5
			C299.3,60.7,301.7,63.3,304.9,63.3z M305,55.7c1.1,0,1.8,0.6,1.9,1.8c0.1,1.3-0.7,2-1.9,2c-1.2,0-1.9-0.7-2-1.9
			C303.1,56.4,303.7,55.7,305,55.7z"/>
		<path class="st0" d="M304.9,70.9c7.3,0,13.3-5.9,13.3-13.2c0-7.4-6.1-13.4-13.4-13.4c-7.3,0-13.2,6.1-13.2,13.4
			C291.6,65,297.6,70.9,304.9,70.9z M305,48c5.2,0,9.6,4.5,9.6,9.7c0,5.2-4.3,9.5-9.6,9.5c-5.4,0-9.7-4.3-9.7-9.6
			C295.3,52.4,299.7,48,305,48z"/>
		<path class="st0" d="M304.9,4.7c-60.4,0-109.3,48.9-109.3,109.3c0,60.4,48.9,109.3,109.3,109.3c60.4,0,109.3-48.9,109.3-109.3
			C414.2,53.6,365.3,4.7,304.9,4.7z M305,40.4c9.6,0,17.2,7.8,17.2,17.4c0,9.4-7.9,17.1-17.3,17.1c-9.6,0-17.3-7.8-17.3-17.4
			C287.7,48,295.5,40.4,305,40.4z M322.2,170.3c0,8.2-5.5,15-13.5,16.8c-10.6,2.5-21-5.6-21.1-16.6c0-6.6,0-13.2,0-19.8v-7.9
			c0-0.2,0-0.4,0-0.6c0-0.3,0-0.6,0-1c0-0.5,0-1.1,0-1.6c0-0.3,0-0.6,0-0.9v-5.2c0-0.3,0-0.5,0-0.8c0-0.1,0-0.2,0-0.3v-0.9
			c0-2,0-4.1,0-6.1c0-5.4,0-10.7,0-16c0-2.8-0.1-5.6,0.3-8.3c1.4-8.9,9.4-14.9,18.6-14.2c8.6,0.7,15.6,8.1,15.6,16.8
			c0,5.3,0,10.7,0,16v1c0,0.6,0,1.1,0,1.7v4.4c0,1.6,0,3.2,0,4.7c0,0.3,0,0.6,0,1c0,1.6,0,3.2,0,4.7h0
			C322.2,148.2,322.3,159.3,322.2,170.3z"/>
		<path class="st0" d="M302.9,151c0-0.5-0.2-1.4-0.6-1.6c-0.2-0.1-0.4-0.2-0.6-0.2c-0.4-0.1-0.8-0.2-1.3-0.3
			c-0.4-0.1-0.7-0.1-1.1-0.2v1.8c0,6.4,0,12.8,0,19.3c0,3.6,2.3,6.1,5.6,6.1c3.3,0,5.6-2.5,5.6-6.1c0-6.4,0-12.8,0-19.3v-1.7
			c-0.6,0.1-1,0.2-1.4,0.2c-1.9,0-2.3,1-2.3,2.8c0.1,4.6,0.1,9.1,0.1,13.7c0,1.6,0,3.3,0,4.9c-0.1,1.2-0.8,1.8-1.9,1.8
			c-1.1,0-1.8-0.6-2-1.8c-0.1-0.5,0-1,0-1.5C303,163,303,157,302.9,151z"/>
		<path class="st0" d="M310.5,103.6c-0.1-3-2.8-5.4-5.7-5.3c-3,0.1-5.5,2.5-5.5,5.5c0,9.5,0,19,0,28.6c0,1.1,0.5,2.3,1.2,3.3
			c1.4,2,3.9,2.7,6.1,1.9c2.3-0.7,3.9-2.8,3.9-5.3c0-4.7,0-9.5,0-14.2h0C310.6,113.3,310.6,108.5,310.5,103.6z M304.9,134.2
			c-1.3,0-1.9-0.9-1.9-2.7c0-4.5,0-8.9,0-13.4h0c0-4.5,0-9,0-13.5c0-1.8,0.6-2.6,1.9-2.7c1.3,0,2,0.9,2,2.6c0,9,0,18,0,27.1
			C306.9,133.4,306.2,134.3,304.9,134.2z"/>
		<path class="st0" d="M318.3,121.7c0-0.1,0-0.2,0-0.2c0-0.3,0-0.6,0-0.9c0-5.9,0-11.8-0.1-17.7c-0.1-4.4-2.5-7.8-6.2-10.2
			c-4.3-2.6-8.8-2.8-13.2-0.4c-4.7,2.5-7,6.6-7,11.9c-0.1,4.6,0,9.3,0,13.9h0c0,2.6,0,5.1,0,7.7c0,2,0,4,0,6c0,0.3,0,0.6,0,0.9
			c0,0.3,0,0.6,0.1,0.9c0.1,1.7,0.6,3.4,1.4,4.9c0.1,0.3,0.3,0.6,0.5,0.8c0.3,0.4,0.5,0.8,0.8,1.2c0.2,0.3,0.4,0.5,0.7,0.8
			c2.5,2.7,6,4.4,9.8,4.3c0.4,0,0.9,0,1.3-0.1c0.6-0.1,1.3-0.2,1.9-0.3c4-1,7.5-3.8,9.1-7.5c0.2-0.5,0.4-0.9,0.5-1.4
			c0.2-0.8,0.4-1.7,0.4-2.6c0-1.3,0.1-2.5,0.1-3.8c0-0.3,0-0.6,0-1c0-1.2,0.1-2.4,0.1-3.5c0-0.3,0-0.6,0-1c0-0.2,0-0.4,0-0.6
			c0-0.3,0-0.6,0-1c0.1,0,0.2-0.1,0.2-0.1l-0.2-0.1C318.3,122.3,318.3,122,318.3,121.7z M314.6,132.2c0,5.5-4.3,9.7-9.6,9.8
			c-5.4,0-9.6-4.2-9.8-9.8c-0.1-2.3,0-4.7,0-7c0-2.3,0-4.7,0-7h0c0-4.6,0-9.3,0-13.9c0.1-4.2,1.9-7.4,5.8-9.1
			c3.6-1.6,7.2-1,10.2,1.6c2.3,2,3.3,4.6,3.3,7.5C314.6,113.6,314.7,122.9,314.6,132.2z"/>
		<path class="st0" d="M318.1,143.7c-0.8,0.7-1.2,1.3-1.8,1.6c-1.5,0.8-1.7,2-1.7,3.5c0.1,7.1,0,14.2,0,21.2c0,2.6-0.8,4.8-2.6,6.7
			c-2.7,2.9-6.8,3.9-10.5,2.6c-3.8-1.4-6.3-4.9-6.3-9c0-6.1,0-12.2,0-18.3c0-0.3,0-0.6,0-1c0-1,0-2,0-3c0-0.6-0.1-1.4-0.5-1.8
			c-0.6-0.6-1.3-1.2-2-1.7c-0.3-0.2-0.6-0.5-0.9-0.7c0,0.2-0.1,0.3-0.1,0.4c0,0.1-0.1,0.2-0.1,0.3c0,2.2,0,4.4,0,6.6
			c0,0.3,0,0.6,0,0.9c0,6.4-0.1,12.8,0.2,19.2c0.3,7.1,6.6,12.5,13.6,12.2c7.2-0.3,12.7-6,12.8-13.5c0.1-8.2,0-16.4,0-24.7
			C318.2,144.9,318.2,144.5,318.1,143.7z"/>
		<path class="st1" d="M322.2,137.1c0-1.6,0-3.1,0-4.7c0-0.3,0-0.6,0-1c0-1.6,0-3.1,0-4.7v-4.4c0-0.6,0-1.1,0-1.7v-1
			c0-5.3,0-10.7,0-16c-0.1-8.7-7-16.2-15.6-16.8c-9.2-0.7-17.3,5.3-18.6,14.2c-0.4,2.7-0.3,5.5-0.3,8.3c0,5.4,0,10.7,0,16
			c0,2,0,4.1,0,6.1v0.9c0,0.1,0,0.2,0,0.3c0,0.3,0,0.5,0,0.8v5.2c0,0.3,0,0.6,0,0.9c0,0.5,0,1.1,0,1.6c0,0.3,0,0.6,0,1
			c0,0.2,0,0.4,0,0.6v7.9c0,6.6,0,13.2,0,19.8c0,10.9,10.4,19,21.1,16.6c8-1.8,13.5-8.6,13.5-16.8
			C322.3,159.3,322.2,148.2,322.2,137.1L322.2,137.1z M318.2,170.1c-0.1,7.4-5.6,13.2-12.8,13.5c-7,0.3-13.4-5.1-13.6-12.2
			c-0.2-6.4-0.2-12.8-0.2-19.2c0-0.3,0-0.6,0-0.9c0-2.2,0-4.4,0-6.6c0-0.1,0-0.2,0.1-0.3c0-0.1,0.1-0.2,0.1-0.4
			c0.3,0.3,0.6,0.5,0.9,0.7c0.7,0.6,1.4,1.1,2,1.7c0.4,0.4,0.5,1.2,0.5,1.8c0,1,0,2,0,3c0,0.3,0,0.6,0,1c0,6.1,0,12.2,0,18.3
			c0,4.1,2.5,7.6,6.3,9c3.7,1.4,7.7,0.4,10.5-2.6c1.7-1.9,2.6-4.1,2.6-6.7c0-7.1,0-14.2,0-21.2c0-1.5,0.2-2.7,1.7-3.5
			c0.6-0.3,1-0.9,1.8-1.6c0.1,0.8,0.2,1.3,0.2,1.7C318.2,153.7,318.3,161.9,318.2,170.1z M303,170.5c0.1,1.2,0.9,1.8,2,1.8
			c1.1,0,1.9-0.6,1.9-1.8c0.1-1.6,0-3.3,0-4.9c0-4.6,0.1-9.1-0.1-13.7c-0.1-1.8,0.4-2.8,2.3-2.8c0.4,0,0.8-0.1,1.4-0.2v1.7
			c0,6.4,0,12.8,0,19.3c0,3.6-2.4,6.1-5.6,6.1c-3.3,0-5.6-2.5-5.6-6.1c0-6.4,0-12.9,0-19.3v-1.8c0.4,0.1,0.7,0.1,1.1,0.2
			c0.5,0.1,0.9,0.2,1.3,0.3c0.2,0.1,0.4,0.1,0.6,0.2c0.4,0.2,0.6,1,0.6,1.6c0,6,0,12,0,18C303,169.5,302.9,170,303,170.5z
			 M318.2,122.9c0,0.3,0,0.6,0,1c0,0.2,0,0.4,0,0.6c0,0.3,0,0.6,0,1c0,1.2,0,2.4-0.1,3.5c0,0.3,0,0.6,0,1c0,1.3-0.1,2.5-0.1,3.8
			c0,0.9-0.2,1.7-0.4,2.6c-0.1,0.5-0.3,1-0.5,1.4c-1.6,3.7-5,6.5-9.1,7.5c-0.6,0.2-1.2,0.3-1.9,0.3c-0.4,0-0.8,0.1-1.3,0.1
			c-3.8,0-7.3-1.7-9.8-4.3c-0.2-0.3-0.5-0.5-0.7-0.8c-0.3-0.4-0.6-0.8-0.8-1.2c-0.2-0.3-0.3-0.5-0.5-0.8c-0.8-1.5-1.3-3.1-1.4-4.9
			c0-0.3,0-0.6-0.1-0.9c0-0.3,0-0.6,0-0.9c-0.1-2,0-4,0-6c0-2.6,0-5.1,0-7.7h0c0-4.6,0-9.3,0-13.9c0.1-5.3,2.4-9.4,7-11.9
			c4.4-2.4,8.9-2.3,13.2,0.4c3.7,2.3,6.2,5.7,6.2,10.2c0.1,5.9,0.2,11.8,0.1,17.7c0,0.3,0,0.6,0,0.9c0,0.1,0,0.2,0,0.2
			c0,0.3,0,0.6,0,0.9l0.2,0.1C318.4,122.8,318.3,122.8,318.2,122.9z"/>
		<path class="st1" d="M304.9,74.9c9.4,0,17.2-7.7,17.3-17.1c0-9.7-7.6-17.4-17.2-17.4c-9.5,0-17.3,7.6-17.3,17.1
			C287.6,67.2,295.3,74.9,304.9,74.9z M304.9,44.3c7.4,0,13.4,6,13.4,13.4c0,7.3-6,13.2-13.3,13.2c-7.4,0-13.3-5.9-13.3-13.2
			C291.6,50.4,297.6,44.3,304.9,44.3z"/>
		<path class="st1" d="M311.3,96.7c-3.1-2.6-6.6-3.2-10.2-1.6c-3.9,1.7-5.7,4.9-5.8,9.1c-0.1,4.6,0,9.3,0,13.9h0c0,2.3,0,4.7,0,7
			c0,2.3,0,4.7,0,7c0.2,5.6,4.4,9.8,9.8,9.8c5.3,0,9.5-4.3,9.6-9.8c0.1-9.3,0-18.6,0-27.9C314.6,101.3,313.6,98.7,311.3,96.7z
			 M310.6,132.4c0,2.5-1.6,4.5-3.9,5.3c-2.2,0.7-4.7,0-6.1-1.9c-0.6-0.9-1.2-2.2-1.2-3.3c-0.1-9.5-0.1-19,0-28.6
			c0-3.1,2.5-5.5,5.5-5.5c3-0.1,5.7,2.3,5.7,5.3c0.1,4.8,0,9.7,0,14.5h0C310.6,122.9,310.6,127.6,310.6,132.4z"/>
		<path class="st1" d="M305,67.2c5.3,0,9.6-4.3,9.6-9.5c0-5.3-4.4-9.7-9.6-9.7c-5.2,0-9.7,4.4-9.7,9.7C295.3,63,299.6,67.3,305,67.2
			z M305,52c3.2,0,5.6,2.6,5.6,5.8c0,3.1-2.6,5.6-5.7,5.5c-3.2,0-5.6-2.6-5.6-5.8C299.4,54.4,301.9,52,305,52z"/>
		<path class="st1" d="M304.9,102c-1.3,0-1.9,0.9-1.9,2.7c0,4.5,0,9,0,13.5h0c0,4.5,0,8.9,0,13.4c0,1.8,0.6,2.6,1.9,2.7
			c1.3,0,2-0.8,2-2.6c0-9,0-18,0-27.1C306.9,102.9,306.2,102,304.9,102z"/>
		<path class="st1" d="M305,59.6c1.2,0,1.9-0.8,1.9-2c-0.1-1.2-0.7-1.8-1.9-1.8c-1.2,0-1.9,0.7-2,1.9
			C303.1,58.9,303.8,59.6,305,59.6z"/>
	</g>
	<g>
		<path class="st2" d="M539.3,292.6c0-4-1.4-7.7-4-10.4c-2.7-2.7-6.4-4.1-10.9-4.1h-22.6v29h22C533.7,307.1,539.2,302,539.3,292.6z"
			/>
		<polygon class="st2" points="421.2,315.8 453,315.8 437.1,279.8 		"/>
		<rect x="6.9" y="272.5" class="st0" width="12.2" height="65"/>
		<polygon class="st0" points="73.3,312.8 41.5,272.5 31.6,272.5 31.6,337.5 43.8,337.5 43.8,293.6 78,337.6 78,337.5 85.6,337.5 
			85.6,272.4 73.3,272.4 		"/>
		<polygon class="st0" points="125.7,323.1 106.1,272.5 92.4,272.5 119.4,337.7 132.1,337.7 159.2,272.5 145.4,272.5 		"/>
		<polygon class="st0" points="166.5,337.5 215.2,337.5 215.2,325.4 178.7,325.4 178.7,310.7 213.9,310.7 213.9,299.3 178.7,299.3 
			178.7,284.3 215.2,284.3 215.2,272.5 166.5,272.5 		"/>
		<path class="st0" d="M252.3,297.7c-7.8-0.9-14.5-2.5-14.5-8.2c0-4.8,4.4-8.6,13.5-8.6c7.1,0,13.2,3.5,15.4,7.2l9.8-5
			c-4.9-10-15.4-12.9-25.5-12.9c-12,0.1-25.2,5.6-25.2,18.9c0,14.6,12.3,18.1,25.5,19.7c8.6,0.9,15,3.4,15,9.6c0,7.1-7.2,9.8-15,9.8
			c-7.9,0-15.4-3.2-18.3-10.3l-10.2,5.3c4.8,11.9,15,16,28.3,16c14.5,0,27.3-6.2,27.3-20.7C278.5,302.9,265.9,299.4,252.3,297.7z"/>
		<polygon class="st0" points="284.2,283.6 304.8,283.6 304.8,337.5 317.1,337.5 317.1,283.6 337.7,283.6 337.7,272.5 284.2,272.5 
					"/>
		<polygon class="st0" points="347.6,273.5 347.6,336.5 350.6,336.5 350.6,281 395.9,336.5 396.4,336.5 396.4,273.5 393.5,273.5 
			393.5,329 348.3,273.5 		"/>
		<path class="st0" d="M391.5,323.4l-42-51.6l-0.3-0.4h-3.6v67h7v-51.9l42.4,51.9h3.4v-67h-6.9V323.4z M393.5,273.5h2.9v63h-0.5
			L350.6,281v55.5h-3v-63h0.7l45.2,55.6V273.5z"/>
		<path class="st0" d="M435,273.5l-28.3,63h3.2l7.1-16h40.1l7.2,16h3.2l-28.3-63H435z M418.1,317.8l19-43l19,43H418.1z"/>
		<path class="st0" d="M433.7,271.5l-30.1,67h7.6l7.1-16h37.5l7.2,16h7.6l-30.1-67H433.7z M464.3,336.5l-7.2-16H417l-7.1,16h-3.2
			l28.3-63h4.2l28.3,63H464.3z"/>
		<path class="st0" d="M418.1,317.8h38l-19-43L418.1,317.8z M421.2,315.8l15.9-36.1l15.9,36.1H421.2z"/>
		<rect x="477.5" y="273.5" class="st0" width="2.9" height="63"/>
		<path class="st0" d="M475.5,338.5h6.9v-67h-6.9V338.5z M477.5,273.5h2.9v63h-2.9V273.5z"/>
		<path class="st0" d="M524.7,311.6c6.3,0,11.5-1.9,15-5.5c3.3-3.3,5.1-8.1,5.1-13.4c-0.1-9.3-6.5-19.3-20.4-19.3h-27.6v63h3v-24.6
			H519l22.5,24.6h3.9l-22.9-24.9H524.7z M499.8,309.1v-33h24.6c5,0,9.2,1.6,12.3,4.7c3,3,4.7,7.3,4.6,11.8
			c-0.1,10.5-6.5,16.5-17.4,16.5H499.8z"/>
		<path class="st0" d="M541.1,307.5c3.7-3.7,5.7-9,5.7-14.8c-0.1-10.2-7.1-21.2-22.4-21.2h-29.6v67h7v-24.6h16.3l22.5,24.6h9.3
			l-23-25C532.7,313.1,537.6,311,541.1,307.5z M545.3,336.5h-3.9L519,311.9h-19.2v24.6h-3v-63h27.6c13.9,0,20.3,10,20.4,19.3
			c0,5.3-1.8,10-5.1,13.4c-3.6,3.6-8.7,5.5-15,5.5h-2.3L545.3,336.5z"/>
		<path class="st0" d="M541.3,292.6c0.1-4.5-1.6-8.8-4.6-11.8c-3.1-3.1-7.3-4.7-12.3-4.7h-24.6v33h24
			C534.8,309.1,541.2,303.1,541.3,292.6z M501.8,278.1h22.6c4.4,0,8.2,1.4,10.9,4.1c2.6,2.6,4.1,6.4,4,10.4
			c-0.1,9.4-5.6,14.5-15.4,14.5h-22V278.1z"/>
		<polygon class="st0" points="559.9,306 598,306 598,303.5 559.9,303.5 559.9,276.2 599.8,276.2 599.8,273.5 557,273.5 557,336.5 
			600.9,336.5 600.9,333.6 559.9,333.6 		"/>
		<path class="st0" d="M561.9,331.6V308H600v-6.6h-38.1v-23.3h39.9v-6.7H555v67h48v-6.8H561.9z M600.9,336.5h-44v-63h42.9v2.7h-39.9
			v27.3H598v2.6h-38.1v27.6h41.1V336.5z"/>
	</g>
</g>
</svg>
